<svg width="117" height="36" viewBox="0 0 117 36" fill="none" xmlns="http://www.w3.org/2000/svg">
<rect y="7" width="117" height="29" rx="8" fill="#FFC700"/>
<path d="M16.7988 26L15.9609 23.6211H12.6855L11.8477 26H10.3652L13.5527 17.3984H15.1113L18.293 26H16.7988ZM15.5977 22.4141L14.7832 20.0703C14.752 19.9688 14.707 19.8262 14.6484 19.6426C14.5898 19.4551 14.5312 19.2656 14.4727 19.0742C14.4141 18.8789 14.3652 18.7148 14.3262 18.582C14.2871 18.7422 14.2383 18.9219 14.1797 19.1211C14.125 19.3164 14.0703 19.5 14.0156 19.6719C13.9648 19.8438 13.9258 19.9766 13.8984 20.0703L13.0781 22.4141H15.5977ZM23.3027 19.5137H24.8203L22.1367 22.6309L25.0488 26H23.4609L20.666 22.707V26H19.2832V19.5137H20.666V22.6602L23.3027 19.5137ZM32.8008 28.2852H31.5234V26H26.1035V19.5137H27.4863V24.916H30.4922V19.5137H31.875V24.9395H32.8008V28.2852ZM35.3145 19.5137V22.8242C35.3145 22.9297 35.3105 23.0645 35.3027 23.2285C35.2988 23.3887 35.291 23.5566 35.2793 23.7324C35.2676 23.9043 35.2559 24.0625 35.2441 24.207C35.2324 24.3516 35.2227 24.459 35.2148 24.5293L38.4785 19.5137H40.1543V26H38.8359V22.7246C38.8359 22.5527 38.8398 22.3535 38.8477 22.127C38.8594 21.9004 38.8711 21.6816 38.8828 21.4707C38.8984 21.2598 38.9082 21.0996 38.9121 20.9902L35.6602 26H33.9902V19.5137H35.3145ZM42.7852 26H41.25L43.0605 23.3516C42.8145 23.2734 42.584 23.1582 42.3691 23.0059C42.1582 22.8496 41.9863 22.6465 41.8535 22.3965C41.7207 22.1426 41.6543 21.834 41.6543 21.4707C41.6543 20.8379 41.8809 20.3535 42.334 20.0176C42.7871 19.6816 43.3789 19.5137 44.1094 19.5137H47.0508V26H45.6738V23.4922H44.3672L42.7852 26ZM43.002 21.4824C43.002 21.8105 43.125 22.0605 43.3711 22.2324C43.6172 22.4004 43.9531 22.4844 44.3789 22.4844H45.6738V20.5508H44.1797C43.7695 20.5508 43.4707 20.6406 43.2832 20.8203C43.0957 20.9961 43.002 21.2168 43.002 21.4824ZM48.8145 25.2734C48.8145 24.9531 48.8965 24.7285 49.0605 24.5996C49.2285 24.4668 49.4316 24.4004 49.6699 24.4004C49.9082 24.4004 50.1113 24.4668 50.2793 24.5996C50.4512 24.7285 50.5371 24.9531 50.5371 25.2734C50.5371 25.5859 50.4512 25.8125 50.2793 25.9531C50.1113 26.0898 49.9082 26.1582 49.6699 26.1582C49.4316 26.1582 49.2285 26.0898 49.0605 25.9531C48.8965 25.8125 48.8145 25.5859 48.8145 25.2734ZM48.8145 20.2578C48.8145 19.9336 48.8965 19.7051 49.0605 19.5723C49.2285 19.4395 49.4316 19.373 49.6699 19.373C49.9082 19.373 50.1113 19.4395 50.2793 19.5723C50.4512 19.7051 50.5371 19.9336 50.5371 20.2578C50.5371 20.5664 50.4512 20.791 50.2793 20.9316C50.1113 21.0684 49.9082 21.1367 49.6699 21.1367C49.4316 21.1367 49.2285 21.0684 49.0605 20.9316C48.8965 20.791 48.8145 20.5664 48.8145 20.2578ZM55.5645 26V17.4336H62.1445V26H60.75V18.6289H56.9707V26H55.5645ZM70.0137 22.7422C70.0137 23.2812 69.9434 23.7598 69.8027 24.1777C69.6621 24.5957 69.457 24.9492 69.1875 25.2383C68.918 25.5234 68.5938 25.7422 68.2148 25.8945C67.8359 26.043 67.4082 26.1172 66.9316 26.1172C66.4863 26.1172 66.0781 26.043 65.707 25.8945C65.3359 25.7422 65.0137 25.5234 64.7402 25.2383C64.4707 24.9492 64.2617 24.5957 64.1133 24.1777C63.9648 23.7598 63.8906 23.2812 63.8906 22.7422C63.8906 22.0273 64.0137 21.4219 64.2598 20.9258C64.5098 20.4258 64.8652 20.0449 65.3262 19.7832C65.7871 19.5215 66.3359 19.3906 66.9727 19.3906C67.5703 19.3906 68.0977 19.5215 68.5547 19.7832C69.0117 20.0449 69.3691 20.4258 69.627 20.9258C69.8848 21.4258 70.0137 22.0312 70.0137 22.7422ZM65.3086 22.7422C65.3086 23.2148 65.3652 23.6191 65.4785 23.9551C65.5957 24.291 65.7754 24.5488 66.0176 24.7285C66.2598 24.9043 66.5723 24.9922 66.9551 24.9922C67.3379 24.9922 67.6504 24.9043 67.8926 24.7285C68.1348 24.5488 68.3125 24.291 68.4258 23.9551C68.5391 23.6191 68.5957 23.2148 68.5957 22.7422C68.5957 22.2695 68.5391 21.8691 68.4258 21.541C68.3125 21.209 68.1348 20.957 67.8926 20.7852C67.6504 20.6094 67.3359 20.5215 66.9492 20.5215C66.3789 20.5215 65.9629 20.7129 65.7012 21.0957C65.4395 21.4785 65.3086 22.0273 65.3086 22.7422ZM76.8926 19.5137V24.9336H77.8301V28.2852H76.5586V26H72.082V28.2852H70.8105V24.9336H71.3379C71.666 24.457 71.9395 23.9258 72.1582 23.3398C72.3809 22.7539 72.5527 22.1367 72.6738 21.4883C72.7988 20.8359 72.877 20.1777 72.9082 19.5137H76.8926ZM75.5273 20.5684H74.0918C74.0449 21.0957 73.9648 21.6211 73.8516 22.1445C73.7383 22.6641 73.5918 23.1621 73.4121 23.6387C73.2363 24.1113 73.0254 24.543 72.7793 24.9336H75.5273V20.5684ZM81.5801 19.3906C82.4004 19.3906 83.0195 19.5723 83.4375 19.9355C83.8594 20.2988 84.0703 20.8652 84.0703 21.6348V26H83.0918L82.8281 25.0801H82.7812C82.5977 25.3145 82.4082 25.5078 82.2129 25.6602C82.0176 25.8125 81.791 25.9258 81.5332 26C81.2793 26.0781 80.9688 26.1172 80.6016 26.1172C80.2148 26.1172 79.8691 26.0469 79.5645 25.9062C79.2598 25.7617 79.0195 25.543 78.8438 25.25C78.668 24.957 78.5801 24.5859 78.5801 24.1367C78.5801 23.4688 78.8281 22.9668 79.3242 22.6309C79.8242 22.2949 80.5781 22.1094 81.5859 22.0742L82.7109 22.0332V21.6934C82.7109 21.2441 82.6055 20.9238 82.3945 20.7324C82.1875 20.541 81.8945 20.4453 81.5156 20.4453C81.1914 20.4453 80.877 20.4922 80.5723 20.5859C80.2676 20.6797 79.9707 20.7949 79.6816 20.9316L79.2363 19.959C79.5527 19.791 79.9121 19.6543 80.3145 19.5488C80.7207 19.4434 81.1426 19.3906 81.5801 19.3906ZM82.7051 22.9004L81.8672 22.9297C81.1797 22.9531 80.6973 23.0703 80.4199 23.2812C80.1426 23.4922 80.0039 23.7812 80.0039 24.1484C80.0039 24.4688 80.0996 24.7031 80.291 24.8516C80.4824 24.9961 80.7344 25.0684 81.0469 25.0684C81.5234 25.0684 81.918 24.9336 82.2305 24.6641C82.5469 24.3906 82.7051 23.9902 82.7051 23.4629V22.9004ZM89.3262 19.3906C90.0957 19.3906 90.7129 19.6719 91.1777 20.2344C91.6465 20.7969 91.8809 21.6328 91.8809 22.7422C91.8809 23.4766 91.7715 24.0957 91.5527 24.5996C91.3379 25.0996 91.0352 25.4785 90.6445 25.7363C90.2578 25.9902 89.8066 26.1172 89.291 26.1172C88.9629 26.1172 88.6777 26.0742 88.4355 25.9883C88.1934 25.9023 87.9863 25.791 87.8145 25.6543C87.6426 25.5137 87.498 25.3613 87.3809 25.1973H87.2988C87.3184 25.3535 87.3359 25.5273 87.3516 25.7188C87.3711 25.9062 87.3809 26.0781 87.3809 26.2344V28.877H85.998V19.5137H87.123L87.3164 20.4102H87.3809C87.502 20.2266 87.6484 20.0566 87.8203 19.9004C87.9961 19.7441 88.207 19.6211 88.4531 19.5312C88.7031 19.4375 88.9941 19.3906 89.3262 19.3906ZM88.957 20.5156C88.5781 20.5156 88.2734 20.5918 88.043 20.7441C87.8164 20.8926 87.6504 21.1172 87.5449 21.418C87.4434 21.7188 87.3887 22.0957 87.3809 22.5488V22.7422C87.3809 23.2227 87.4297 23.6309 87.5273 23.9668C87.6289 24.2988 87.7949 24.5527 88.0254 24.7285C88.2598 24.9004 88.5762 24.9863 88.9746 24.9863C89.3105 24.9863 89.5879 24.8945 89.8066 24.7109C90.0293 24.5273 90.1953 24.2656 90.3047 23.9258C90.4141 23.5859 90.4688 23.1855 90.4688 22.7246C90.4688 22.0254 90.3438 21.4824 90.0938 21.0957C89.8477 20.709 89.4688 20.5156 88.957 20.5156ZM99.2168 22.7422C99.2168 23.2812 99.1465 23.7598 99.0059 24.1777C98.8652 24.5957 98.6602 24.9492 98.3906 25.2383C98.1211 25.5234 97.7969 25.7422 97.418 25.8945C97.0391 26.043 96.6113 26.1172 96.1348 26.1172C95.6895 26.1172 95.2812 26.043 94.9102 25.8945C94.5391 25.7422 94.2168 25.5234 93.9434 25.2383C93.6738 24.9492 93.4648 24.5957 93.3164 24.1777C93.168 23.7598 93.0938 23.2812 93.0938 22.7422C93.0938 22.0273 93.2168 21.4219 93.4629 20.9258C93.7129 20.4258 94.0684 20.0449 94.5293 19.7832C94.9902 19.5215 95.5391 19.3906 96.1758 19.3906C96.7734 19.3906 97.3008 19.5215 97.7578 19.7832C98.2148 20.0449 98.5723 20.4258 98.8301 20.9258C99.0879 21.4258 99.2168 22.0312 99.2168 22.7422ZM94.5117 22.7422C94.5117 23.2148 94.5684 23.6191 94.6816 23.9551C94.7988 24.291 94.9785 24.5488 95.2207 24.7285C95.4629 24.9043 95.7754 24.9922 96.1582 24.9922C96.541 24.9922 96.8535 24.9043 97.0957 24.7285C97.3379 24.5488 97.5156 24.291 97.6289 23.9551C97.7422 23.6191 97.7988 23.2148 97.7988 22.7422C97.7988 22.2695 97.7422 21.8691 97.6289 21.541C97.5156 21.209 97.3379 20.957 97.0957 20.7852C96.8535 20.6094 96.5391 20.5215 96.1523 20.5215C95.582 20.5215 95.166 20.7129 94.9043 21.0957C94.6426 21.4785 94.5117 22.0273 94.5117 22.7422ZM104.818 19.5137H106.336L103.652 22.6309L106.564 26H104.977L102.182 22.707V26H100.799V19.5137H102.182V22.6602L104.818 19.5137Z" fill="white"/>
<rect x="58" width="10" height="10" transform="rotate(45 58 0)" fill="#FFC700"/>
</svg>
