<svg width="32" height="32" viewBox="0 0 32 32" fill="none" xmlns="http://www.w3.org/2000/svg">
<path fill-rule="evenodd" clip-rule="evenodd" d="M18.3577 12C18.0145 13.1652 17.0885 14 16 14C14.9115 14 13.9854 13.1652 13.6422 12H11.0021H8.49998V10H13.6422C13.9854 8.83481 14.9115 8 16 8C17.0885 8 18.0145 8.83481 18.3577 10H23.5V12H21.0021H18.3577ZM21.0021 12L22.1292 14.165L22.225 14.3492L24.1255 18L24.8387 19.37L25.1666 20C25.1666 22.7614 23.3012 25 21 25C18.6988 25 16.8333 22.7614 16.8333 20L17.1613 19.3705L17.8755 18L19.7786 14.348L19.8742 14.1646L21.0021 12ZM11.0021 12L12.1292 14.165L12.225 14.3492L14.1255 18L14.8387 19.37L15.1666 20C15.1666 22.7614 13.3012 25 11 25C8.69879 25 6.83331 22.7614 6.83331 20L7.16132 19.3705L7.87551 18L9.77859 14.348L9.87416 14.1646L11.0021 12ZM13.1186 19L12.1318 17.1339L11.3513 15.6578L11.0014 14.9962L10.6511 15.657L9.86875 17.1327L8.87881 19H13.1186ZM18.8788 19L19.8688 17.1327L20.6511 15.657L21.0014 14.9962L21.3513 15.6578L22.1318 17.1339L23.1186 19H18.8788Z" fill="#FDC83E"/>
<mask id="mask0_727_2510" style="mask-type:alpha" maskUnits="userSpaceOnUse" x="6" y="8" width="20" height="17">
<path fill-rule="evenodd" clip-rule="evenodd" d="M18.3577 12C18.0145 13.1652 17.0885 14 16 14C14.9115 14 13.9854 13.1652 13.6422 12H11.0021H8.49998V10H13.6422C13.9854 8.83481 14.9115 8 16 8C17.0885 8 18.0145 8.83481 18.3577 10H23.5V12H21.0021H18.3577ZM21.0021 12L22.1292 14.165L22.225 14.3492L24.1255 18L24.8387 19.37L25.1666 20C25.1666 22.7614 23.3012 25 21 25C18.6988 25 16.8333 22.7614 16.8333 20L17.1613 19.3705L17.8755 18L19.7786 14.348L19.8742 14.1646L21.0021 12ZM11.0021 12L12.1292 14.165L12.225 14.3492L14.1255 18L14.8387 19.37L15.1666 20C15.1666 22.7614 13.3012 25 11 25C8.69879 25 6.83331 22.7614 6.83331 20L7.16132 19.3705L7.87551 18L9.77859 14.348L9.87416 14.1646L11.0021 12ZM13.1186 19L12.1318 17.1339L11.3513 15.6578L11.0014 14.9962L10.6511 15.657L9.86875 17.1327L8.87881 19H13.1186ZM18.8788 19L19.8688 17.1327L20.6511 15.657L21.0014 14.9962L21.3513 15.6578L22.1318 17.1339L23.1186 19H18.8788Z" fill="white"/>
</mask>
<g mask="url(#mask0_727_2510)">
<rect x="-4.83331" y="-9" width="41.6667" height="50" fill="#CCCCCC"/>
<mask id="mask1_727_2510" style="mask-type:alpha" maskUnits="userSpaceOnUse" x="-5" y="-9" width="42" height="50">
<rect x="-4.83331" y="-9" width="41.6667" height="50" fill="white"/>
</mask>
<g mask="url(#mask1_727_2510)">
</g>
</g>
</svg>
