<svg width="32" height="32" viewBox="0 0 32 32" fill="none" xmlns="http://www.w3.org/2000/svg">
<path d="M23.1891 9.81086C22.7738 9.39528 22.2806 9.06561 21.7377 8.84069C21.1949 8.61577 20.6131 8.5 20.0255 8.5C19.4379 8.5 18.8561 8.61577 18.3133 8.84069C17.7704 9.06561 17.2772 9.39528 16.8619 9.81086L15.9998 10.6729L15.1377 9.81086C14.2987 8.97181 13.1607 8.50043 11.9741 8.50043C10.7875 8.50043 9.64947 8.97181 8.81042 9.81086C7.97137 10.6499 7.5 11.7879 7.5 12.9745C7.5 14.1611 7.97137 15.2991 8.81042 16.1381L9.6725 17.0002L15.9998 23.3275L22.3271 17.0002L23.1891 16.1381C23.6047 15.7228 23.9344 15.2296 24.1593 14.6867C24.3842 14.1439 24.5 13.5621 24.5 12.9745C24.5 12.3869 24.3842 11.8051 24.1593 11.2623C23.9344 10.7194 23.6047 10.2262 23.1891 9.81086Z" stroke="#CCCCCC" stroke-width="2" stroke-linecap="round" stroke-linejoin="round"/>
</svg>
